<?xml version="1.0" standalone="no"?>
<!DOCTYPE svg PUBLIC "-//W3C//DTD SVG 20010904//EN"
 "http://www.w3.org/TR/2001/REC-SVG-20010904/DTD/svg10.dtd">
<svg version="1.0" xmlns="http://www.w3.org/2000/svg"
 width="512.000000pt" height="512.000000pt" viewBox="0 0 512.000000 512.000000"
 preserveAspectRatio="xMidYMid meet">
<metadata>
Created by potrace 1.14, written by Peter Selinger 2001-2017
</metadata>
<g transform="translate(0.000000,512.000000) scale(0.100000,-0.100000)"
fill="#000000" stroke="none">
<path d="M2413 4790 c-78 -14 -142 -48 -198 -105 -61 -61 -92 -123 -102 -207
l-8 -63 -120 -6 c-108 -5 -127 -9 -188 -38 -156 -75 -234 -265 -178 -434 42
-128 138 -215 273 -246 74 -17 1218 -15 1283 3 79 21 126 47 175 96 54 53 84
112 100 198 23 116 -21 245 -111 326 -80 72 -126 88 -264 95 l-120 6 -8 50
c-27 162 -108 266 -241 309 -61 20 -221 29 -293 16z"/>
<path d="M967 4396 c-49 -18 -62 -30 -86 -80 -21 -42 -21 -47 -21 -1948 0
-1398 3 -1914 11 -1939 14 -40 44 -76 81 -95 38 -20 3115 -21 3151 -1 44 24
76 69 87 121 7 35 9 641 8 1941 -3 2098 3 1919 -71 1979 l-39 31 -279 3 c-243
3 -279 1 -279 -12 0 -8 5 -18 10 -21 26 -16 100 -202 100 -251 0 -23 2 -23
118 -26 l117 -3 0 -1730 0 -1730 -1345 0 -1345 0 0 1730 0 1730 118 3 117 3 0
28 c0 53 49 178 96 246 8 11 14 23 14 27 0 5 -118 8 -262 8 -194 -1 -273 -4
-301 -14z"/>
<path d="M1686 3408 c-13 -29 -38 -91 -56 -138 -17 -47 -36 -94 -40 -105 -21
-51 -60 -156 -60 -160 0 -3 14 -5 30 -5 20 0 33 6 36 18 7 20 23 61 34 82 5
11 29 16 92 18 96 3 105 -2 128 -75 11 -37 17 -43 42 -43 34 0 35 10 7 81 -12
30 -25 63 -29 74 -4 11 -12 31 -18 45 -5 14 -25 63 -42 110 -51 135 -59 150
-81 150 -14 0 -26 -15 -43 -52z m74 -120 c13 -40 28 -79 33 -85 21 -29 -1 -43
-68 -43 -75 0 -78 5 -46 86 10 27 25 64 31 82 7 17 16 32 20 32 3 0 17 -33 30
-72z"/>
<path d="M2006 3452 c-3 -5 -6 -107 -6 -228 l-2 -219 91 -3 c73 -2 100 1 135
16 52 24 89 71 105 134 33 137 -18 254 -128 293 -46 16 -186 21 -195 7z m222
-86 c37 -34 37 -35 40 -123 2 -69 -1 -95 -15 -123 -23 -45 -73 -70 -140 -70
l-53 0 0 175 0 175 65 0 c60 0 68 -3 103 -34z"/>
<path d="M2420 3240 c0 -121 -1 -223 -2 -227 -2 -5 12 -9 30 -11 l32 -3 0 160
c0 101 4 161 10 161 6 0 10 -7 10 -15 0 -8 9 -37 21 -63 12 -26 24 -56 29 -67
4 -11 13 -33 20 -50 7 -16 17 -41 23 -55 24 -62 31 -71 51 -68 16 2 33 36 81
155 34 84 65 157 71 163 7 7 10 -44 9 -153 l0 -162 28 -3 27 -3 0 231 0 231
-36 -3 -36 -3 -55 -140 c-30 -77 -58 -149 -63 -160 -5 -11 -11 -28 -14 -39 -9
-25 -28 -8 -44 41 -8 21 -18 49 -24 63 -6 14 -15 36 -21 50 -5 14 -14 36 -20
50 -5 14 -13 34 -17 45 -31 85 -39 95 -75 95 l-35 0 0 -220z"/>
<path d="M2987 3454 c-4 -4 -7 -108 -7 -231 l0 -223 30 0 30 0 -2 228 c-3 220
-4 227 -23 230 -12 2 -24 0 -28 -4z"/>
<path d="M3160 3240 c0 -121 -1 -223 -2 -227 -2 -5 12 -9 30 -11 l32 -3 0 165
c0 91 4 166 8 166 5 0 15 -12 23 -27 7 -16 37 -64 65 -108 28 -44 67 -106 87
-137 32 -50 42 -58 67 -58 l30 0 -2 228 -3 227 -25 0 -25 0 -3 -167 c-1 -93
-6 -168 -11 -168 -4 0 -13 10 -19 23 -7 12 -22 38 -35 58 -12 19 -48 78 -81
130 -73 117 -83 129 -113 129 l-23 0 0 -220z"/>
<path d="M3102 2813 c-29 -14 -83 -71 -137 -143 -26 -36 -354 -443 -518 -643
l-130 -159 -31 35 c-235 265 -245 274 -311 279 -63 4 -85 -3 -118 -35 -44 -45
-61 -102 -44 -151 14 -42 391 -466 441 -497 58 -35 135 -18 192 43 17 18 103
123 191 233 88 110 278 346 421 524 267 332 281 354 266 418 -23 93 -132 141
-222 96z"/>
</g>
</svg>
